<svg width="182" height="50" viewBox="0 0 182 50" fill="none" xmlns="http://www.w3.org/2000/svg">
<g clip-path="url(#clip0_15_34)">
<path d="M43.9132 0.041626V38.5698L48.8681 38.5887V20.25H60.8393V15.3962H48.8681V4.89542H64.4514V0.041626H43.9132ZM73.3967 7.86058C75.1933 7.86058 76.6306 6.40633 76.6306 4.63101C76.6306 2.85569 75.1744 1.40144 73.3967 1.40144C71.6001 1.40144 70.1628 2.85569 70.1628 4.63101C70.1628 6.40633 71.619 7.86058 73.3967 7.86058ZM70.8814 12.7144V38.5698H75.8363V12.7144H70.8814Z" fill="white"/>
<path fill-rule="evenodd" clip-rule="evenodd" d="M94.2375 11.959C87.6372 11.959 83.0417 17.5305 83.0417 24.1407C83.0417 30.7509 87.6372 36.3224 94.2375 36.3224C97.2633 36.3224 99.7408 35.1514 101.556 33.2628V36.6812C101.556 40.9684 98.19 44.5379 93.7836 44.5379C92.195 44.5379 90.6253 43.9336 89.3771 43.0648L86.8808 47.3709C88.8665 48.6552 91.2305 49.3917 93.7647 49.3917C100.8 49.3917 106.492 43.7069 106.492 36.6812V12.7144H101.556V15.0186C99.7408 13.1299 97.2633 11.959 94.2375 11.959ZM88.0155 24.1407C88.0155 20.0423 91.1548 16.8128 94.7859 16.8128C98.417 16.8128 101.556 20.0423 101.556 24.1407C101.556 28.239 98.417 31.4686 94.7859 31.4686C91.1548 31.4686 88.0155 28.239 88.0155 24.1407Z" fill="white"/>
<path d="M124.402 16.8128C121.47 16.8128 119.088 19.3058 119.088 22.2332V38.5699H114.133V12.7144H119.088V15.0752C120.544 13.2055 122.681 11.959 125.48 11.959C128.959 11.959 131.626 13.6776 133.177 16.3217C134.898 13.7721 137.697 11.959 141.082 11.959C146.737 11.959 150.254 16.5106 150.273 22.1387V38.5699H145.318V22.2143C145.318 19.2869 142.935 16.7939 140.004 16.7939C137.073 16.7939 134.69 19.2869 134.69 22.2143V38.5699H129.735V22.2143C129.716 19.2869 127.333 16.8128 124.402 16.8128Z" fill="white"/>
<path fill-rule="evenodd" clip-rule="evenodd" d="M176.712 15.6418C174.499 13.3566 171.473 11.959 167.975 11.959C160.599 11.959 155.341 18.2104 155.341 25.6516C155.341 33.0928 160.58 39.3442 167.975 39.3442C171.473 39.3442 174.499 37.9277 176.712 35.6614V38.5699H181.667V12.7144H176.712V15.6418ZM160.315 25.6516C160.315 20.7223 164.098 16.8128 168.523 16.8128C172.929 16.8128 176.731 20.7034 176.731 25.6516C176.731 30.5809 172.948 34.4904 168.523 34.4904C164.098 34.4715 160.315 30.5809 160.315 25.6516Z" fill="white"/>
<path d="M16.6613 25.0094C16.6613 20.42 20.3869 16.6805 25.0014 16.6805C29.597 16.6805 33.3415 20.4012 33.3415 25.0094C33.3415 29.5988 29.6159 33.3383 25.0014 33.3383C20.4059 33.3383 16.6613 29.5988 16.6613 25.0094Z" fill="#1ABCFE"/>
<path d="M0 41.6483C0 37.059 3.72562 33.3195 8.3401 33.3195H16.6802V41.6483C16.6802 46.2377 12.9546 49.9772 8.3401 49.9772C3.72562 49.9772 0 46.2566 0 41.6483Z" fill="#0ACF83"/>
<path d="M16.6613 0.0417135V16.6806H25.0014C29.597 16.6806 33.3415 12.96 33.3415 8.35171C33.3415 3.76233 29.6159 0.0228271 25.0014 0.0228271H16.6613V0.0417135Z" fill="#FF7262"/>
<path d="M0 8.37051C0 12.9599 3.72562 16.6994 8.3401 16.6994H16.6802V0.041626H8.3401C3.72562 0.041626 0 3.76224 0 8.37051Z" fill="#F24E1E"/>
<path d="M0 25.0094C0 29.5988 3.72562 33.3383 8.3401 33.3383H16.6802V16.6805H8.3401C3.72562 16.6805 0 20.42 0 25.0094Z" fill="#A259FF"/>
</g>
<defs>
<clipPath id="clip0_15_34">
<rect width="181.667" height="50" fill="white"/>
</clipPath>
</defs>
</svg>
