<svg width="154" height="50" viewBox="0 0 154 50" fill="none" xmlns="http://www.w3.org/2000/svg">
<g clip-path="url(#clip0_15_23)">
<path d="M18.8837 0.00439453H20.2472C24.981 0.107204 29.6376 2.00918 32.9821 5.3762C31.7472 6.63561 30.4866 7.84363 29.2774 9.10304C27.3993 7.40669 25.1353 6.09586 22.6655 5.63322C19.0123 4.86215 15.0761 5.55611 12.0145 7.63801C8.67002 9.82271 6.40603 13.5239 5.91722 17.482C5.37695 21.3888 6.48322 25.5012 9.0302 28.5341C11.4743 31.4898 15.2047 33.3404 19.0638 33.4689C22.6655 33.6745 26.4217 32.5693 29.0459 30.0505C31.104 28.277 32.0559 25.5783 32.3647 22.9566C28.094 22.9566 23.8233 22.9823 19.5526 22.9566V17.6619H37.5358C38.462 23.3422 37.1242 29.7421 32.802 33.8031C29.9206 36.6817 25.9329 38.3781 21.868 38.7122C17.9318 39.0977 13.8669 38.3524 10.368 36.4504C6.17449 34.2143 2.82997 30.436 1.18344 25.9895C-0.360186 21.9028 -0.385913 17.2764 1.0548 13.164C2.36688 9.41147 4.88814 6.09586 8.12975 3.78265C11.2427 1.49513 15.0246 0.235716 18.8837 0.00439453Z" fill="#3780FF"/>
<path d="M122.049 1.34094H127.555V38.044C125.728 38.044 123.876 38.0697 122.049 38.0183C122.075 25.8096 122.049 13.5753 122.049 1.34094Z" fill="#38B137"/>
<path d="M49.7819 14.0637C53.1778 13.4211 56.8568 14.1408 59.6611 16.1713C62.208 17.9705 63.9832 20.7977 64.5235 23.882C65.2181 27.4546 64.3434 31.3614 62.028 34.1887C59.5324 37.3501 55.4418 39.0464 51.4541 38.7894C47.8009 38.5838 44.2506 36.7589 42.0895 33.7774C39.6454 30.4875 39.0537 25.9639 40.3915 22.1085C41.7293 17.9705 45.5112 14.8091 49.7819 14.0637ZM50.5537 18.9471C49.1644 19.307 47.8781 20.1038 46.9519 21.2347C44.4564 24.2161 44.6107 29.0739 47.3635 31.8497C48.9329 33.4433 51.2998 34.1887 53.4866 33.7517C55.519 33.3919 57.2942 32.0297 58.2718 30.2305C59.9698 27.1719 59.481 22.9567 56.8825 20.5664C55.2103 19.0243 52.7662 18.3817 50.5537 18.9471Z" fill="#FA3913"/>
<path d="M77.0526 14.0636C80.9374 13.3183 85.1823 14.3978 88.0895 17.1222C92.8233 21.3631 93.3378 29.3052 89.2987 34.1886C86.8546 37.2729 82.8926 38.9693 78.9821 38.7893C75.2517 38.6865 71.5727 36.836 69.3602 33.7774C66.8647 30.4104 66.3244 25.7839 67.7394 21.8515C69.1544 17.8419 72.8591 14.7833 77.0526 14.0636ZM77.8244 18.9471C76.4351 19.3069 75.1488 20.1037 74.2226 21.2089C71.7528 24.139 71.8557 28.9196 74.5056 31.7212C76.0749 33.3918 78.519 34.2143 80.783 33.7517C82.7897 33.3661 84.5906 32.0296 85.5682 30.2304C87.2405 27.1462 86.7517 22.931 84.1275 20.5406C82.4553 18.9985 80.0112 18.3816 77.8244 18.9471Z" fill="#FCBD06"/>
<path d="M100.181 15.5543C103.14 13.7037 107.076 13.1897 110.266 14.7832C111.27 15.2202 112.093 15.9656 112.89 16.7109C112.916 16.017 112.89 15.2973 112.916 14.5776C114.64 14.6033 116.364 14.5776 118.113 14.6033V37.2728C118.087 40.6913 117.213 44.3153 114.743 46.8084C112.041 49.5586 107.899 50.4068 104.169 49.8413C100.181 49.2502 96.7081 46.3458 95.1644 42.6703C96.7081 41.925 98.3289 41.3338 99.9239 40.6399C100.824 42.7475 102.651 44.5466 104.941 44.9579C107.23 45.3691 109.88 44.8036 111.372 42.9017C112.968 40.9483 112.968 38.2752 112.89 35.8849C111.707 37.0415 110.343 38.0696 108.697 38.4552C105.121 39.4575 101.185 38.2238 98.4318 35.8078C95.6532 33.3918 94.0067 29.6649 94.1611 25.9638C94.2383 21.7743 96.6051 17.739 100.181 15.5543ZM105.507 18.8442C103.937 19.1012 102.471 19.9751 101.468 21.1831C99.0492 24.0618 99.0492 28.6625 101.493 31.4898C102.883 33.1605 105.121 34.0857 107.282 33.8544C109.314 33.6488 111.192 32.3637 112.196 30.5902C113.894 27.583 113.611 23.4964 111.321 20.8747C109.906 19.2555 107.642 18.4587 105.507 18.8442Z" fill="#3780FF"/>
<path d="M134.167 16.8652C137.254 13.9865 142.013 13.0098 145.975 14.5263C149.732 15.9399 152.124 19.5125 153.333 23.188C147.751 25.5012 142.194 27.7887 136.611 30.1019C137.383 31.567 138.566 32.9035 140.161 33.4432C142.399 34.24 145.075 33.9573 146.953 32.4665C147.699 31.9011 148.291 31.1557 148.857 30.4361C150.272 31.387 151.687 32.3123 153.102 33.2633C151.095 36.2705 147.725 38.3781 144.097 38.7122C140.084 39.2006 135.813 37.6584 133.215 34.5227C128.944 29.5879 129.356 21.3117 134.167 16.8652ZM136.919 21.6201C136.045 22.8795 135.685 24.4217 135.71 25.9381C139.441 24.396 143.171 22.8538 146.902 21.286C146.284 19.8467 144.792 18.9728 143.274 18.7415C140.83 18.3045 138.283 19.6153 136.919 21.6201Z" fill="#FA3913"/>
</g>
<defs>
<clipPath id="clip0_15_23">
<rect width="153.333" height="50" fill="white"/>
</clipPath>
</defs>
</svg>
