<svg width="56" height="56" viewBox="0 0 56 56" fill="none" xmlns="http://www.w3.org/2000/svg">
<g clip-path="url(#clip0_12_91)">
<path d="M51.0781 26.4688H4.92188C2.20784 26.4688 0 28.6766 0 31.3906V51.0781C0 53.7922 2.20784 56 4.92188 56H51.0781C53.7922 56 56 53.7922 56 51.0781V31.3906C56 28.6766 53.7923 26.4688 51.0781 26.4688ZM14.875 49.4375H8.3125C7.40567 49.4375 6.67188 48.7037 6.67188 47.7969V34.6719C6.67188 33.765 7.40567 33.0312 8.3125 33.0312C9.21933 33.0312 9.95312 33.765 9.95312 34.6719V46.1562H14.875C15.7818 46.1562 16.5156 46.89 16.5156 47.7969C16.5156 48.7037 15.7818 49.4375 14.875 49.4375ZM23.0781 47.7969C23.0781 48.7037 22.3443 49.4375 21.4375 49.4375C20.5307 49.4375 19.7969 48.7037 19.7969 47.7969V34.6719C19.7969 33.765 20.5307 33.0312 21.4375 33.0312C22.3443 33.0312 23.0781 33.765 23.0781 34.6719V47.7969ZM36.1535 35.0692L32.8722 48.1942C32.6896 48.9249 32.0343 49.4375 31.2812 49.4375C30.5282 49.4375 29.8729 48.9247 29.6903 48.1942L26.409 35.0692C26.188 34.1913 26.723 33.3004 27.6026 33.0809C28.4791 32.8534 29.3715 33.3949 29.591 34.2745L31.2812 41.0326L32.9715 34.2746C33.1894 33.395 34.0803 32.8519 34.9599 33.081C35.8395 33.3004 36.3746 34.1913 36.1535 35.0692ZM47.6875 39.5938C48.5943 39.5938 49.3281 40.3275 49.3281 41.2344C49.3281 42.1412 48.5943 42.875 47.6875 42.875H42.7656V46.1562H47.6875C48.5943 46.1562 49.3281 46.89 49.3281 47.7969C49.3281 48.7037 48.5943 49.4375 47.6875 49.4375H41.125C40.2182 49.4375 39.4844 48.7037 39.4844 47.7969V34.6719C39.4844 33.765 40.2182 33.0312 41.125 33.0312H47.6875C48.5943 33.0312 49.3281 33.765 49.3281 34.6719C49.3281 35.5787 48.5943 36.3125 47.6875 36.3125H42.7656V39.5938H47.6875Z" fill="#FFC536"/>
<path d="M13.5612 22.3135C8.77387 15.9368 8.77387 7.03194 13.5612 0.655271C14.1044 -0.0672603 15.1346 -0.216338 15.8587 0.328458C16.5829 0.873255 16.7287 1.90182 16.1856 2.62599C12.2683 7.8411 12.2683 15.1278 16.1856 20.3428C16.7287 21.0669 16.5829 22.0955 15.8587 22.6403C15.1376 23.1813 14.107 23.0411 13.5612 22.3135Z" fill="#FFC536"/>
<path d="M40.1413 22.6403C39.4171 22.0956 39.2713 21.0669 39.8145 20.3428C43.7317 15.1277 43.7317 7.84099 39.8145 2.62599C39.2713 1.90182 39.4171 0.873253 40.1413 0.328456C40.8655 -0.2147 41.8973 -0.0672627 42.4388 0.655268C47.2262 7.03194 47.2262 15.9368 42.4388 22.3135C41.8939 23.04 40.8638 23.1821 40.1413 22.6403Z" fill="#FFC536"/>
<path d="M19.4397 19.1412C15.5304 14.7769 15.5304 8.19197 19.4397 3.82758C20.0453 3.15306 21.0867 3.09859 21.7564 3.69939C22.4309 4.30336 22.4886 5.34166 21.8846 6.01617C19.0936 9.13402 19.0936 13.8347 21.8846 16.9526C22.4886 17.6271 22.4309 18.6653 21.7564 19.2694C21.0842 19.8726 20.0443 19.8177 19.4397 19.1412Z" fill="#FFC536"/>
<path d="M34.2437 19.2694C33.5692 18.6654 33.5115 17.6271 34.1155 16.9526C36.9065 13.8347 36.9065 9.13402 34.1155 6.01618C33.5115 5.34166 33.5692 4.30347 34.2437 3.69939C34.9166 3.09696 35.9564 3.15143 36.5605 3.82758C40.4698 8.19186 40.4698 14.7768 36.5605 19.1412C35.9561 19.8174 34.916 19.8727 34.2437 19.2694Z" fill="#FFC536"/>
<path d="M28 16.4062C25.286 16.4062 23.0781 14.1984 23.0781 11.4844C23.0781 8.77034 25.286 6.5625 28 6.5625C30.714 6.5625 32.9219 8.77034 32.9219 11.4844C32.9219 14.1984 30.7141 16.4062 28 16.4062Z" fill="#FFC536"/>
</g>
<defs>
<clipPath id="clip0_12_91">
<rect width="56" height="56" fill="white"/>
</clipPath>
</defs>
</svg>
