<svg width="56" height="56" viewBox="0 0 56 56" fill="none" xmlns="http://www.w3.org/2000/svg">
<path d="M21.7295 40.8188C23.2366 44.3131 25.3379 47.4822 27.9999 50.2695C30.6621 47.4821 32.7633 44.3131 34.2704 40.8188H21.7295Z" fill="#FFC536"/>
<path d="M23.9043 5.39929C21.0524 5.91357 18.3185 6.96335 15.8455 8.50904C13.0922 10.2299 10.7447 12.5083 8.94382 15.1812H18.1838C19.5576 11.6149 21.4739 8.33885 23.9043 5.39929Z" fill="#FFC536"/>
<path d="M32.0956 50.6007C34.9476 50.0864 37.6815 49.0366 40.1545 47.491C42.9078 45.7701 45.2553 43.4917 47.0562 40.8188H37.8162C36.4424 44.3851 34.5261 47.6611 32.0956 50.6007Z" fill="#FFC536"/>
<path d="M47.0562 15.1813C45.2553 12.5084 42.9078 10.23 40.1545 8.50905C37.6815 6.96337 34.9476 5.9137 32.0956 5.39941C34.5261 8.33898 36.4424 11.615 37.8162 15.1814L47.0562 15.1813Z" fill="#FFC536"/>
<path d="M34.2705 15.1812C32.7633 11.6869 30.6621 8.51778 28 5.73047C25.3378 8.51789 23.2366 11.6869 21.7295 15.1812H34.2705Z" fill="#FFC536"/>
<path d="M8.94382 40.8187C10.7447 43.4917 13.0922 45.77 15.8455 47.4909C18.3185 49.0366 21.0524 50.0863 23.9043 50.6006C21.4739 47.661 19.5576 44.385 18.1838 40.8186H8.94382V40.8187Z" fill="#FFC536"/>
<path d="M0 18.4625V37.5375H56V18.4625H0ZM17.212 33.5462H14.8374L10.4643 26.5865V33.6935H7.94631V21.625L10.321 21.6254L14.694 28.5849V21.6072H17.212V33.5462ZM25.2267 24.169H21.2319V26.3913H24.9321V28.9093H21.2319V31.1316H25.2267V33.6496H18.7137V28.9093V26.3913V21.6509H25.2267V24.169ZM37.0917 33.6118L34.7037 33.6281L32.7443 26.8323L30.7834 33.6124L28.3941 33.6287L26.0834 21.9473L28.5537 21.4587L29.8223 27.872L31.5899 21.7604L33.9034 21.7633L35.666 27.876L36.9399 21.4752L39.4095 21.9668L37.0917 33.6118ZM48.0047 30.582C47.6828 32.3849 45.9634 33.6935 43.9165 33.6935C42.2597 33.6935 40.7043 33.0258 39.6493 31.8616L41.5151 30.1707C42.0853 30.7998 42.983 31.1754 43.9165 31.1754C44.8081 31.1754 45.4349 30.6486 45.5258 30.1394C45.6478 29.4564 44.6272 29.0234 44.3115 28.9069C42.8257 28.3589 41.5062 27.7715 41.4507 27.7468L41.3596 27.7061L41.276 27.6516C40.2464 26.9804 39.7158 25.8031 39.8915 24.5794C40.0784 23.2767 41.0298 22.216 42.3745 21.8109C45.0208 21.0137 47.1979 22.8092 47.2894 22.8859L45.6691 24.8136L45.6768 24.8199C45.6644 24.81 44.4281 23.8222 43.1009 24.222C42.5215 24.3965 42.4065 24.7803 42.384 24.9372C42.3684 25.0465 42.3603 25.3074 42.5892 25.4966C42.9335 25.6472 44.0184 26.1148 45.1828 26.5443C47.6335 27.4484 48.2473 29.2229 48.0047 30.582Z" fill="#FFC536"/>
</svg>
