<svg width="153" height="50" viewBox="0 0 153 50" fill="none" xmlns="http://www.w3.org/2000/svg">
<path fill-rule="evenodd" clip-rule="evenodd" d="M10.5597 50V0H0V50H10.5597Z" fill="#F6D330"/>
<path fill-rule="evenodd" clip-rule="evenodd" d="M16.017 39.5358H10.335V15.0218H2.382V10.2118H23.97V15.0218H16.017V39.5358Z" fill="white"/>
<path fill-rule="evenodd" clip-rule="evenodd" d="M38.445 33.3209C37.0436 38.6541 33.0285 40.6699 29.5817 40.6699C23.8997 40.6699 19.5436 37.67 19.5436 28.5447C19.5436 25.879 20.3766 17.3368 29.2025 17.3368C33.1795 17.3368 38.6715 19.4203 38.6715 29.5444V29.7882H24.3145C24.4663 31.4543 25.302 36.535 29.5817 36.535C31.0587 36.535 33.3721 34.9028 33.7886 33.32H38.445V33.3209ZM33.629 26.2296C33.2957 22.2882 31.004 21.0968 29.1296 21.0968C26.3797 21.0968 24.921 23.0215 24.5878 26.2296H33.629ZM29.5679 15.3358H26.5403L29.3023 10.6039H34.3379L29.5679 15.3358ZM66.614 33.3209C65.2126 38.6541 61.1975 40.6699 57.7508 40.6699C52.0696 40.6699 47.7135 37.67 47.7135 28.5447C47.7135 25.879 48.5465 17.3368 57.3724 17.3368C61.3494 17.3368 66.8414 19.4203 66.8414 29.5444V29.7882H52.4835C52.6345 31.4543 53.4701 36.535 57.7499 36.535C59.2277 36.535 61.5411 34.9028 61.9577 33.32H66.614V33.3209ZM61.798 26.2296C61.4648 22.2882 59.173 21.0968 57.2978 21.0968C54.5479 21.0968 53.0892 23.0215 52.756 26.2296H61.798ZM57.7369 15.3358H54.7093L57.4714 10.6039H62.5069L57.7369 15.3358ZM45.4391 39.7674H40.6682V10.4425H45.4391V39.7674ZM68.6246 18.2905H72.9018V23.1056H72.9781C74.0767 21.0603 75.289 17.7603 78.5083 17.7603C78.8494 17.7603 79.1895 17.7976 79.5323 17.8358V22.9486C79.0767 22.8731 78.4918 22.7403 78.0172 22.8731C74.1947 23.937 73.5292 27.2622 73.1309 29.2806V39.7717H68.6263V18.2905H68.6246ZM98.9491 35.7124C98.6732 39.1018 99.7084 39.9175 99.7084 39.9175H94.4819C94.1479 38.9074 94.331 37.7854 94.206 36.5723C92.874 37.9061 90.8252 40.6994 86.2418 40.4842C82.9113 40.3262 79.4915 38.6653 79.4915 34.2181C79.4915 30.013 82.2423 27.8714 85.9502 27.3455L91.1992 26.5775C92.1164 26.4552 95.0824 27.2622 93.7739 23.8155C92.9278 21.5853 90.9077 21.3085 89.4082 21.3085C86.4917 21.3085 84.9271 23.0466 84.7614 24.2997H80.2005C81.378 18.7478 85.5745 17.8453 90.1171 17.8453C93.2428 17.8453 98.9509 18.7747 98.9509 24.0706V35.7124H98.9491ZM93.6359 28.7139C92.9955 29.2528 91.3528 29.2155 88.6958 29.6563C86.3129 30.0971 84.928 31.2087 84.928 34.0463C84.928 36.443 86.6704 37.1763 87.9078 37.1763C90.7497 37.1763 93.6368 35.2186 93.6368 32.0392V28.7139H93.6359ZM151.747 35.7124C151.471 39.1018 152.506 39.9175 152.506 39.9175H147.28C146.946 38.9074 147.129 37.7854 147.004 36.5723C145.672 37.9061 143.623 40.6994 139.039 40.4842C135.709 40.3262 132.289 38.6653 132.289 34.2181C132.289 30.013 135.04 27.8714 138.748 27.3455L143.997 26.5775C144.914 26.4552 147.88 27.2622 146.571 23.8155C145.725 21.5853 143.705 21.3085 142.206 21.3085C139.289 21.3085 137.725 23.0466 137.559 24.2997H132.998C134.177 18.7478 138.374 17.8453 142.915 17.8453C146.04 17.8453 151.749 18.7747 151.749 24.0706V35.7124H151.747ZM146.435 28.7139C145.793 29.2528 144.15 29.2155 141.493 29.6563C139.111 30.0971 137.726 31.2087 137.726 34.0463C137.726 36.443 139.468 37.1763 140.705 37.1763C143.547 37.1763 146.436 35.2186 146.436 32.0392V28.7139H146.435ZM130.974 39.7674H126.207V26.3085C126.207 23.0171 124.216 21.9333 122.507 21.9333C119.59 21.9333 118.549 23.8502 118.549 26.4743V39.7665H113.514V26.4343C113.514 24.5591 113.514 21.9342 110.014 21.9342C107.263 21.9342 106.388 24.0688 105.59 26.2686V39.7683H100.821V18.6653H105.341V21.916H105.423C106.173 20.4573 107.799 18.0822 111.716 18.0822C114.924 18.0822 116.381 19.7813 117.881 22.1555C118.632 21.0716 120.257 18.0822 123.797 18.0822C128.131 18.0822 130.974 19.5591 130.974 24.4342V39.7674H130.974Z" fill="white"/>
</svg>
