<svg width="56" height="56" viewBox="0 0 56 56" fill="none" xmlns="http://www.w3.org/2000/svg">
<path d="M51.1474 3.35004C50.9404 2.16195 49.9091 1.29496 48.7031 1.29496H43.3242C42.9035 0.523583 42.0851 0 41.1445 0H14.8551C13.9146 0 13.0961 0.523583 12.6754 1.29505H7.29695C6.09112 1.29505 5.05987 2.16223 4.85271 3.34995C4.82334 3.51868 4.14713 7.53184 5.44044 11.9339C6.37487 15.1147 8.46344 18.949 13.0882 21.3399C12.328 23.2371 11.3958 25.3283 10.253 27.6362C10.0168 28.1129 10.0962 28.6855 10.4531 29.0801C13.9639 32.9606 17.9467 35.576 22.1842 36.822C22.1763 36.9149 22.17 37.0084 22.17 37.1033V37.2676C22.17 38.5226 22.8745 39.6124 23.9092 40.1652C24.067 42.1803 23.6076 45.4781 22.5291 48.0913H17.838C16.7962 48.0913 15.9518 48.9358 15.9518 49.9775V54.1138C15.9518 55.1556 16.7961 56 17.838 56H38.1617C39.2035 56 40.0479 55.1555 40.0479 54.1138V49.9775C40.0479 48.9358 39.2036 48.0913 38.1617 48.0913H33.4705C32.3918 45.4781 31.9319 42.1806 32.0889 40.1657C33.1241 39.6131 33.8289 38.523 33.8289 37.2676V37.1033C33.8289 37.0084 33.8227 36.9151 33.8147 36.8222C38.0523 35.5762 42.0351 32.9608 45.5458 29.0801C45.9027 28.6855 45.9821 28.1129 45.7459 27.6362C44.6043 25.3306 43.6704 23.2401 42.9077 21.3416C47.5346 18.9508 49.624 15.1157 50.5589 11.934C51.8527 7.53203 51.1769 3.51877 51.1474 3.35004ZM10.2453 10.6811C9.74486 9.04879 9.61465 7.45544 9.61172 6.2572H12.6758C13.0965 7.02866 13.9148 7.55188 14.8552 7.55188C15.2898 7.55188 15.6979 7.43951 16.0531 7.24324C16.0556 7.26474 16.0584 7.28551 16.0609 7.3072C16.2721 9.22164 16.1001 12.1772 14.7722 16.5826C12.5571 15.2481 11.0405 13.2754 10.2453 10.6811ZM20.2936 30.8204C18.3648 31.3206 16.2937 29.593 15.2292 28.1811C14.9685 27.8355 14.7386 27.4891 14.8518 27.0339C14.9181 26.7666 15.1095 26.5452 15.2592 26.3194C15.9125 25.3337 16.4539 24.2659 16.9301 23.1848C17.9285 20.9187 18.6849 18.5539 19.2461 16.1428C19.6696 14.3234 19.9418 12.4843 20.2936 10.651C20.7814 13.6793 20.6591 16.8119 20.058 19.8136C19.8263 20.9716 19.5114 22.11 19.1209 23.224C18.6348 24.6106 18.033 26.0674 17.203 27.3141C18.0651 28.6185 19.0533 29.8768 20.2936 30.8204ZM45.7544 10.681C44.9579 13.2777 43.4391 15.252 41.2206 16.5868C39.8972 12.2096 39.7093 9.23134 39.9476 7.24397C40.3026 7.44006 40.7103 7.55197 41.1444 7.55197C42.0849 7.55197 42.9032 7.02857 43.3238 6.25729H46.3882C46.3853 7.45644 46.255 9.04924 45.7544 10.681Z" fill="#FFC536"/>
</svg>
